<svg width="566" height="225" xmlns="http://www.w3.org/2000/svg" version="1.2">
 <title>dawg_logo</title>

 <g>
  <title>Layer 1</title>
  <rect stroke-dasharray="2,2" id="svg_4" height="223" width="564.99998" y="1" x="1.00001" stroke-width="0" fill="#ffffff"/>
  <path fill="#d6a07a" opacity="NaN" d="m385.15399,117.47036" id="svg_8"/>
  <g id="svg_10">
   <g id="svg_9">
    <path id="Path 1" class="s1" d="m258.96372,34.48103c-3.3,1.4 -6.9,3.3 -8,4.2c-1.1,1 -3.4,2.9 -5,4.4c-1.9,1.7 -6.4,3.7 -12.5,5.4c-7.9,2.3 -10.6,2.6 -16,2.1c-4.1,-0.4 -7.2,-1.3 -8.5,-2.4c-1.1,-1 -2.9,-3.1 -4,-4.5c-1.3,-1.8 -2.9,-2.7 -4.8,-2.7c-2.1,0 -3.6,1.2 -7,5.7c-2.4,3.2 -5.7,6.6 -7.3,7.7c-1.6,1 -4.2,3 -5.7,4.5c-1.6,1.4 -3.8,4.4 -4.9,6.6c-1.1,2.2 -2.6,4.3 -3.2,4.7c-0.6,0.4 -5.6,0.8 -11.1,0.8c-9,0 -10.6,0.3 -16.3,3c-3.4,1.7 -7.2,3 -8.4,3c-1.3,0 -7,-1.6 -12.8,-3.5c-5.8,-2 -13.9,-4.5 -18,-5.6c-4.1,-1.1 -10.2,-2.3 -13.5,-2.6q-6,-0.6 -11.5,1c-3.6,1 -7.2,3.1 -10.4,5.9c-2.7,2.4 -8.8,9.5 -13.6,15.8c-4.7,6.3 -9.1,12.8 -9.7,14.5c-0.6,1.7 -1.6,5.7 -2.2,9c-0.6,3.3 -1.3,10.5 -1.6,16c-0.4,5.5 -1,11.5 -1.6,13.2c-0.8,2.9 -1.3,3.3 -4.1,3.3c-1.9,-0.1 -3.9,0.7 -4.9,1.7c-0.8,1 -2.1,4.3 -2.8,7.3c-0.8,3 -2,6.8 -2.8,8.5c-0.9,1.7 -3.4,5.5 -5.6,8.5c-2.2,3 -4.9,7.3 -5.9,9.5c-1,2.2 -1.8,6.5 -1.8,9.5c0,3 0.4,7 1,8.7c0.5,1.8 1.9,3.7 3,4.3c1.5,0.8 2.5,0.6 4.3,-0.8c1.2,-1.1 3.6,-4.8 5.3,-8.3c1.7,-3.5 4.6,-10.2 6.3,-14.9c1.8,-4.7 3.9,-9.4 4.7,-10.5c1.3,-1.9 1.8,-1.9 7.2,-0.7c3.1,0.7 7.3,1.2 9.2,1.2c1.9,0 5,-0.9 6.8,-2c2.4,-1.5 3.4,-1.7 3.8,-0.7c0.4,0.6 0.4,2.5 0,4.2c-0.3,1.7 -2,7.1 -3.6,12c-2.1,5.9 -3.3,11.9 -3.7,17.5c-0.5,7.6 -0.3,8.8 1.6,11.3c1.3,1.7 3.1,2.7 4.6,2.7c1.6,0 3.4,-1.1 5,-3c1.5,-1.8 2.9,-5.3 3.6,-8.8c0.5,-3.1 1.5,-8.2 2.1,-11.2c0.5,-3 1.6,-7.4 2.4,-9.8c1,-2.8 2.4,-4.8 4.7,-6.1c1.7,-1.1 6.4,-2.5 10.2,-3.1c3.8,-0.6 8.3,-1.5 10,-2c1.7,-0.5 5.1,-3.2 7.8,-6l4.7,-5c5.4,4.7 9.3,7.1 12,8.5c2.8,1.4 8.4,3.4 12.5,4.5c4.1,1.1 10.2,2 13.5,2c5.7,0 6.1,0.2 8.9,3.8l2.9,3.7c28.4,-0.6 31.8,-0.3 38,1.5c3.9,1.1 8.9,3.1 11,4.4c2,1.3 6.2,4.4 9.2,7c3,2.6 7.5,5.4 10,6.3c4.5,1.7 4.5,1.7 10.5,-1.4c3.3,-1.7 7.2,-3.6 8.8,-4.2c1.5,-0.6 3.1,-2.2 3.7,-3.6c0.6,-1.4 1,-4 1,-5.8c0,-1.7 -0.8,-6.1 -1.9,-9.7c-1,-3.6 -3,-9.4 -4.5,-13c-1.5,-3.6 -4,-7.7 -5.7,-9.3c-1.6,-1.5 -3.9,-2.9 -5.1,-3.1c-1.3,-0.3 -4,-0.7 -6,-1c-2.1,-0.3 -4.5,-1.3 -5.3,-2.1c-0.8,-0.8 -1.8,-3.2 -2.1,-5.3c-0.5,-3.1 -0.3,-4 1.7,-5.4c1.3,-1 3.2,-1.8 4.2,-1.8c0.9,0 2.9,0.8 4.5,1.8c1.5,1.1 4.2,2.4 6,3c2.2,0.8 4,0.9 5.7,0.2c1.5,-0.6 3.3,-2.7 4.4,-5.3c1.2,-2.4 4.7,-6.6 8.3,-9.8c3.5,-3 7.46687,-7.49976 9.96687,-8.59976c2.5,-1.1 5.60024,-2.33349 8.30024,-3.53349c2.6,-1.1 2.80073,-1.93337 4.20073,-1.93337c1.4,0 -2.41745,0.84159 1.3324,-1.28334c3.74985,-2.12494 5.69976,-0.35003 5.29976,-0.75003c-0.5,-0.3 -2.3,-0.2 -4.1,0.3c-2,0.6 10.09673,-3.3324 12.1295,-4.26566c2.03277,-0.93325 2.01984,-1.65916 3.91984,-1.95916c1.9,-0.3 -2.24977,0.72494 -0.04985,-0.42503c2.19992,-1.14997 1.89797,-0.41641 6.79797,-2.51641c4.9,-2.1 3.03531,-2.73386 5.83531,-3.93386c2.7,-1.3 4.76723,-3.79988 7.36723,-4.89988c2.7,-1.2 5.5,-2.1 6.3,-2.1c0.8,0 1.5,0.2 1.5,0.5c0,0.3 -0.6,1.7 -1.4,3.3c-0.7,1.5 -3.5,7.2 -6.1,12.7c-2.7,5.5 -7.3,13.8 -10.3,18.5c-3.1,4.7 -8.3,11.3 -11.6,14.8c-3.4,3.5 -8.4,7.7 -11.1,9.2c-2.8,1.6 -5.8,3 -6.8,3c-1.2,0 -1.5,-0.5 -1.1,-1.7c0.3,-1 1.6,-4 2.8,-6.8c1.3,-2.7 2.9,-6.6 3.6,-8.5c0.7,-1.9 1.4,-6 1.6,-9l0.15827,0.08345c-1.2,7.8 -2.15827,6.41655 -3.05827,8.91655c-0.8,2.5 -2.6,6.9 -4.1,9.8c-1.4,2.8 -3,5.4 -3.6,5.7c-0.6,0.3 -1,1.4 -1,2.5c0,1.1 0.7,2 1.5,2c0.8,0 4.2,-1.3 7.5,-3c3.3,-1.7 8.9,-5.8 12.4,-9.3c3.5,-3.4 8.7,-9.4 11.6,-13.2c2.8,-3.8 8.3,-13.5 12.2,-21.5c4,-8 7.8,-14.8 8.5,-15.3c0.7,-0.4 1.3,-1.6 1.3,-2.7c0,-1.5 -0.7,-2 -2.8,-2c-1.5,0 -7.60004,3.62496 -14.70004,6.72496c-7.1,3 -14.96683,6.00818 -17.16683,7.00818c-2.2,1 -5.80061,2.53362 -11.00061,4.93362c-5.2,2.3 -7.00097,2.93374 -16.29915,6.59964c-2.9,0.8 -1.46711,2.09964 -4.43337,-2.96638c-0.8,-1.6 -3.5,-5.5 -6.1,-8.8c-2.5,-3.3 -5.1,-7.8 -5.7,-10c-0.8,-2.9 -0.8,-4.9 0,-7.5c1,-3.1 0.7,-4.4 -2,-11c-2.6,-6.2 -2.9,-7.9 -1.9,-9.7c0.6,-1.3 3.5,-3.8 6.3,-5.7c2.9,-1.8 7.2,-5.3 9.6,-7.7c2.4,-2.5 4.7,-6.1 5.3,-8.2c1,-3.4 0.9,-4.2 -0.7,-5.8c-1.1,-1.1 -2.8,-1.9 -3.9,-1.9c-1.1,0 -4.7,1.2 -8,2.5l0,-0.00003z" fill="#d6a07a"/>
    <path id="Path 3" class="s0" d="m72.92722,139.44833c-0.6,1.5 -2.2,5.2 -3.5,8.2c-1.3,3 -2.3,5.6 -2.3,5.7c0,0.2 2.3,0.3 5,0.3c4.3,0 5.3,-0.4 7.1,-2.8c1.1,-1.5 2.2,-3.7 2.5,-5c0.2,-1.3 -0.6,-3.6 -2.1,-5.7c-1.4,-1.9 -3.2,-3.5 -4,-3.5c-0.9,0 -2,1.2 -2.7,2.7l0,0.1zm114.6,17.4c-1.5,1.6 -1.7,2.4 -0.8,3.7c0.7,1.1 2.7,1.8 5.3,1.9c3.3,0.3 4.1,0 4.1,-1.5c0,-0.9 -0.7,-2.7 -1.5,-4c-0.8,-1.2 -2.3,-2.2 -3.4,-2.2c-1,0 -2.7,0.9 -3.7,2.1zm38.1,13.7c-0.6,0.4 -1.6,1.5 -2.2,2.4c-1.2,1.6 -0.7,2.1 3.5,4.4c3.4,1.9 5,2.3 5.7,1.5c0.7,-0.8 0.4,-2.4 -1,-4.9c-1.1,-2 -2.7,-3.8 -3.5,-3.9c-0.8,-0.2 -1.9,0 -2.5,0.5z" fill="#fefeff"/>
   </g>
   <line fill="none" stroke="#000" stroke-width="4" x1="269.37539" y1="113.61689" x2="332.04148" y2="86.28381" id="svg_3" stroke-linejoin="undefined" stroke-linecap="undefined"/>
   <line fill="none" stroke="#000" x1="212.03556" y1="139.95445" x2="235.70201" y2="129.62121" id="svg_2" stroke-linejoin="undefined" stroke-linecap="undefined" stroke-width="4"/>
  </g>
  <path id="Path 2" class="s2" d="m321.62213,92.4228c-1.6,0.7 -5.9,2.7 -9.5,4.3c-3.6,1.6 -10.6,4.7 -15.5,6.8c-4.9,2.1 -5.77057,3.0347 -8.1347,3.93411c-2.36413,0.89942 -2.63236,0.83353 -4.03294,1.46647c-1.40058,0.63294 -4.13236,1.39942 -3.83236,1.99942q0.5,1 4,0c1.56706,0.06589 2.20175,0.89825 2.96764,1.79766c0.76589,0.89942 0.83236,3.40234 0.53236,9.20234c-0.4,5.8 -2.29883,12.1 -2.99883,14c-0.7,1.9 -3.13236,5.8 -4.43236,8.5c-1.2,2.8 -3.6656,5.30088 -3.9656,6.30088c-0.4,1.2 -2.43505,4.86504 -1.13505,4.86504c0.9,0 9.33184,-4.06592 12.03184,-5.66592c2.8,-1.5 8.03324,-5.7 11.43324,-9.2c3.3,-3.5 9.16589,-9.26734 12.26589,-13.96734c3,-4.7 7.26676,-13 9.96676,-18.5c2.6,-5.5 5.73294,-10.53441 6.43294,-12.03441c0.8,-1.6 1.73294,-2.66706 2.89825,-4.63177c1.1653,-1.96472 2.69591,-3.49649 1.79591,-3.49649c-1,0 -9.19298,3.53002 -10.79298,4.33002l-0.00001,-0.00001z" fill="#d64444"/>
  <text fill="#000000" x="282.27541" y="72.10414" id="svg_11" stroke-width="0" font-size="57" font-family="Arial, Helvetica, sans-serif" text-anchor="start" xml:space="preserve" transform="matrix(1.14766, 0, 0, 1.14766, -44.588, -0.843841)" font-weight="bold">Dawg</text>
  <text fill="#000000" stroke-width="0" x="324.35461" y="181.81663" id="svg_12" font-size="80" font-family="Arial, Helvetica, sans-serif" text-anchor="start" xml:space="preserve" transform="matrix(1.16768, 0, 0, 1.16934, -63.33, -33.4183)" font-weight="bold">CTF</text>
  <text fill="#4c4c4c" stroke-width="0" x="484.38511" y="178.68446" id="svg_13" font-size="22" font-family="Arial, Helvetica, sans-serif" text-anchor="start" xml:space="preserve" font-weight="bold">2023</text>
 </g>
</svg>
