<?xml version="1.0" encoding="UTF-8" standalone="no"?>
<!-- Creator: CorelDRAW -->

<svg
   xml:space="preserve"
   width="200"
   height="200"
   style="image-rendering:optimizeQuality;shape-rendering:geometricPrecision"
   viewBox="0 0 200 200.5698"
   id="svg2436"
   sodipodi:version="0.32"
   inkscape:version="1.2.2 (b0a8486, 2022-12-01)"
   sodipodi:docname="ashiri4.svg"
   inkscape:output_extension="org.inkscape.output.svg.inkscape"
   version="1.1"
   inkscape:export-filename="ashiri5.svg"
   inkscape:export-xdpi="96"
   inkscape:export-ydpi="96"
   xmlns:inkscape="http://www.inkscape.org/namespaces/inkscape"
   xmlns:sodipodi="http://sodipodi.sourceforge.net/DTD/sodipodi-0.dtd"
   xmlns="http://www.w3.org/2000/svg"
   xmlns:svg="http://www.w3.org/2000/svg"
   xmlns:rdf="http://www.w3.org/1999/02/22-rdf-syntax-ns#"
   xmlns:cc="http://creativecommons.org/ns#"
   xmlns:dc="http://purl.org/dc/elements/1.1/"><metadata
   id="metadata2445"><rdf:RDF><cc:Work
       rdf:about=""><dc:format>image/svg+xml</dc:format><dc:type
         rdf:resource="http://purl.org/dc/dcmitype/StillImage" /></cc:Work></rdf:RDF></metadata><defs
   id="defs2443"><rect
     x="73.694809"
     y="75.97403"
     width="122.31818"
     height="92.688316"
     id="rect6040" /></defs><sodipodi:namedview
   inkscape:window-height="847"
   inkscape:window-width="1280"
   inkscape:pageshadow="2"
   inkscape:pageopacity="0.0"
   guidetolerance="10.0"
   gridtolerance="10.0"
   objecttolerance="10.0"
   borderopacity="1.0"
   bordercolor="#666666"
   pagecolor="#ffffff"
   id="base"
   showgrid="false"
   inkscape:zoom="1.3162393"
   inkscape:cx="-33.808442"
   inkscape:cy="175.87987"
   inkscape:window-x="0"
   inkscape:window-y="25"
   inkscape:current-layer="svg2436"
   inkscape:showpageshadow="2"
   inkscape:pagecheckerboard="0"
   inkscape:deskcolor="#d1d1d1"
   inkscape:window-maximized="0" />
  <rect
   style="fill:#d45500;fill-opacity:1;stroke:#010c01;stroke-width:2.0057;stroke-miterlimit:0.5;stroke-dasharray:none;stroke-dashoffset:0;stroke-opacity:1"
   id="rect16988"
   width="200.38095"
   height="200.38095"
   x="0.4770048"
   y="0" /><path
   style="fill:#000000;stroke:#676767;stroke-width:16.6523;stroke-linecap:round;stroke-miterlimit:85.2;stroke-dasharray:none;stroke-opacity:1"
   d="M 9.2380949,192.23077 V 9.2454209"
   id="path2438" />
  <path
   style="fill:#666666;fill-opacity:1;stroke:#070707;stroke-width:3.08075;stroke-linejoin:round;stroke-dasharray:none;stroke-opacity:1"
   d="m 17.761904,17.999999 c 70,30 104.000006,28 178.000006,2 -21,42 -21,74.000004 0,116.000001 -72,25 -101.000006,25 -178.000006,0 z"
   id="path2440" />
<g
   aria-label="A"
   transform="matrix(3.1967719,0,0,3.0038592,-324.26412,-100.01621)"
   id="text6038"
   style="font-size:74.6667px;line-height:0;font-family:Luminari;-inkscape-font-specification:'Luminari, Normal';white-space:pre;shape-inside:url(#rect6040);display:inline;fill:#ffffff;stroke:#f5f5f5;stroke-width:0.257;stroke-miterlimit:0.5;stroke-opacity:1"><g
     id="path13916"
     style="fill:#ffffff;stroke:#f5f5f5;stroke-width:0.621703;stroke-dasharray:none;stroke-dashoffset:0;stroke-opacity:1"><path
       style="color:#000000;-inkscape-font-specification:'Luminari, Normal';fill:#ffffff;stroke:#f5f5f5;stroke-width:0.621703;stroke-dasharray:none;stroke-dashoffset:0;stroke-opacity:1;shape-rendering:auto"
       d="m 131.68119,42.160296 q -1.19467,0 -3.50934,-0.07467 -2.24,-0.07467 -4.77866,-0.224 -2.53867,-0.149333 -5.00267,-0.373333 -2.38934,-0.224 -3.88267,-0.522667 -0.29867,-0.149334 -0.59734,-0.746667 -0.224,-0.672001 -0.224,-1.269334 0,-0.672001 0.59734,-1.045334 2.98667,0.821334 6.496,1.344001 3.50934,0.448 6.72,0.746667 3.21067,0.298666 5.74934,0.373333 2.61334,0.07467 3.808,0.07467 2.912,0 5.97334,-0.149334 3.06133,-0.149333 5.67467,-0.373333 2.61333,-0.224 4.33067,-0.448 1.792,-0.224 2.09066,-0.448 0.14934,0 0.448,0.298666 0.29867,0.298667 0.29867,0.672001 0,0.821333 -0.74667,1.269334 -0.74666,0.373333 -2.09066,0.597333 -1.344,0.149334 -3.28534,0.224 -1.94133,0.07467 -4.33067,0.224 -0.37333,0.07467 -0.37333,0.821334 0,1.717334 0.52267,5.67467 0.59733,3.957335 1.41866,8.960004 0.896,5.002669 1.94134,10.528005 1.12,5.525336 2.16533,10.453338 1.12,4.853336 2.016,8.586671 0.97067,3.658668 1.64267,5.002669 0.37333,0.149333 0.59733,0.224 0.29867,0 0.97067,0 0.97067,0 1.64267,-0.07467 0.74667,-0.07467 1.12,-0.07467 0.29867,0 0.448,0.597333 0.14933,0.597334 0.14933,0.821334 0,0.522667 -0.52266,0.522667 -0.37334,0 -1.04534,-0.07467 -0.672,-0.07467 -1.86667,-0.149333 -1.19466,0 -3.136,-0.07467 -1.86666,-0.07467 -4.77867,-0.07467 -0.97066,0 -2.16533,0.07467 -1.12,0.07467 -2.16533,0.149333 -1.04534,0.07467 -1.86667,0.149334 -0.82134,0.07467 -1.12,0.07467 -0.224,0 -0.37334,-0.298667 -0.14933,-0.298667 -0.14933,-0.672001 0,-0.373333 0.0747,-0.597333 0.14933,-0.298667 0.448,-0.298667 0.672,-0.07467 1.792,-0.07467 1.12,-0.07467 1.12,-0.597333 0,-0.448 -0.37333,-2.688002 -0.37334,-2.240001 -0.97067,-5.376002 -0.52267,-3.136002 -1.19467,-6.645337 -0.59733,-3.584001 -1.19467,-6.645336 -1.344,-0.224 -3.43466,-0.373334 -2.01601,-0.149333 -4.25601,-0.149333 -2.61333,0 -5.00267,0.224 -2.31466,0.224 -3.65866,0.821334 -0.37334,1.642667 -0.82134,3.509335 -0.448,1.792001 -0.896,3.658668 -0.37333,1.866668 -0.672,3.733335 -0.29867,1.792001 -0.29867,3.360002 0,3.061335 1.26934,4.405335 1.344,1.344001 3.28533,1.344001 1.94134,0 2.38934,-0.07467 0.52267,-0.149333 0.896,-0.149333 0.59733,0 0.59733,0.298667 0,0.149333 -0.37333,0.522667 -0.29867,0.298666 -0.82134,0.672 -0.672,0.522667 -1.792,1.269334 -1.04533,0.821334 -2.76266,0.821334 -0.224,0 -1.19467,-0.07467 -0.896,-0.07467 -2.24,-0.224 -1.344,-0.07467 -2.83734,-0.149334 -1.49333,-0.07467 -2.83733,-0.07467 -1.86667,0 -3.06134,0.07467 -1.12,0.07467 -1.792,0.149334 -0.672,0.07467 -0.896,0.149333 -0.29866,0.07467 -0.448,0.07467 -0.14933,0 -0.224,-0.298667 -0.14933,-0.224 -0.14933,-0.522667 0,-0.448 0.37333,-0.522667 0.74667,-0.298667 2.16534,-1.12 1.49333,-0.896001 2.61333,-2.986668 1.19467,-2.165335 2.688,-5.824003 1.04534,-2.464001 2.31467,-6.720003 1.26933,-4.256002 2.53867,-9.333338 1.26933,-5.077336 2.38933,-10.602672 1.12,-5.600003 1.86667,-10.752005 z m 7.616,23.221344 q -0.37333,-1.866667 -0.896,-4.629335 -0.448,-2.762668 -0.97066,-5.600003 -0.52267,-2.912001 -1.04534,-5.450669 -0.448,-2.538668 -0.74666,-3.882669 -0.44801,-2.016001 -0.82134,-2.538667 -0.29867,-0.522667 -0.672,-0.522667 -0.74667,0 -1.568,1.269334 -0.82133,1.194667 -1.792,3.285334 -0.896,2.016001 -1.792,4.704003 -0.896,2.613334 -1.792,5.450669 -0.82134,2.762668 -1.568,5.525336 -0.672,2.762668 -1.12,5.002669 1.19466,-0.298667 2.98666,-0.597334 1.86667,-0.373333 3.88267,-0.746667 2.09067,-0.373333 4.10667,-0.672 2.09067,-0.373333 3.808,-0.597334 z"
       id="path14647" /><path
       style="color:#000000;-inkscape-font-specification:'Luminari, Normal';fill:#ffffff;stroke:#f5f5f5;stroke-width:0.621703;stroke-dasharray:none;stroke-dashoffset:0;stroke-opacity:1;shape-rendering:auto"
       d="m 114.32227,37.765625 -0.11524,0.01563 c -0.43117,0.26948 -0.66406,0.677278 -0.66406,1.167969 0,0.416231 0.0771,0.854303 0.23047,1.314453 l 0.008,0.01953 c 0.20556,0.411109 0.41145,0.685218 0.66211,0.810547 l 0.0371,0.01367 c 1.00325,0.200651 2.30044,0.373809 3.89648,0.523437 1.64424,0.149476 3.31388,0.275358 5.00782,0.375 1.69351,0.09962 3.28848,0.174784 4.7832,0.22461 1.30018,0.04194 2.18701,0.05587 2.95898,0.0625 l -6.08398,3.25 -0.0742,0.105468 c -0.49738,3.431878 -1.11903,7.013104 -1.86523,10.744141 -0.74627,3.681589 -1.54302,7.215026 -2.38868,10.597656 -0.84578,3.383114 -1.69161,6.491273 -2.53711,9.326172 -0.8453,2.834249 -1.61516,5.070567 -2.30859,6.705078 l -0.002,0.002 c -0.99423,2.435872 -1.88756,4.372859 -2.67969,5.808594 l -0.002,0.002 c -0.73813,1.377833 -1.59376,2.351568 -2.56055,2.931641 -0.94133,0.544883 -1.66035,0.915703 -2.14453,1.109375 l 0.0254,-0.0078 c -0.15161,0.03032 -0.28429,0.105812 -0.36914,0.22461 -0.0849,0.118798 -0.11914,0.270109 -0.11914,0.439453 0,0.223124 0.0579,0.427638 0.17383,0.601562 l -0.0215,-0.04492 c 0.0276,0.110518 0.0634,0.201023 0.11914,0.27539 0.0558,0.07437 0.14829,0.132813 0.2461,0.132813 0.12357,0 0.27783,-0.02697 0.48242,-0.07813 l 0.01,-0.0039 c 0.122,-0.04066 0.42268,-0.09319 0.86719,-0.142578 0.44451,-0.04939 1.03976,-0.09874 1.78516,-0.148437 0.79178,-0.04949 1.81021,-0.07422 3.05273,-0.07422 0.89333,0 1.83668,0.02455 2.83008,0.07422 0.99532,0.04976 1.94023,0.09867 2.83594,0.148437 0.89275,0.09914 1.63908,0.174837 2.23633,0.22461 0.64795,0.04985 1.04168,0.07422 1.20703,0.07422 1.16316,0 2.11585,-0.27908 2.84179,-0.845703 l 0.004,-0.0039 c 0.74409,-0.496179 1.3421,-0.917111 1.79297,-1.267578 l 0.004,-0.0039 c 0.35015,-0.250387 0.62744,-0.477047 0.83399,-0.683594 0.12784,-0.127841 0.22711,-0.236311 0.29687,-0.333984 0.0698,-0.09767 0.11914,-0.179252 0.11914,-0.289063 0,-0.147582 -0.0946,-0.286555 -0.22851,-0.353516 -0.13392,-0.06696 -0.3006,-0.08984 -0.51172,-0.08984 -0.2681,0 -0.57839,0.05225 -0.93555,0.154297 l 0.0156,-0.0039 c -0.26538,0.04423 -1.07481,0.07422 -2.36719,0.07422 -1.26097,0 -2.31017,-0.431261 -3.18164,-1.302734 -0.80696,-0.856622 -1.22851,-2.284026 -1.22851,-4.302735 0,-1.036185 0.0989,-2.149946 0.29687,-3.33789 0.1985,-1.240589 0.42188,-2.482029 0.66992,-3.722657 l 0.002,-0.0059 c 0.29807,-1.241905 0.59646,-2.460086 0.89453,-3.652344 0.29148,-1.214519 0.55859,-2.353245 0.80273,-3.425781 0.87024,-0.377823 2.04374,-0.649078 3.55078,-0.794922 1.58803,-0.148877 3.25018,-0.224609 4.98828,-0.224609 1.49013,0 2.90601,0.05113 4.2461,0.15039 1.35119,0.09651 2.44644,0.218689 3.32422,0.361329 0.3916,2.01242 0.78212,4.186854 1.17382,6.537109 v 0.0039 c 0.44781,2.338545 0.84708,4.55124 1.19532,6.640625 v 0.0039 c 0.39807,2.089892 0.72011,3.881251 0.96875,5.373047 0.24863,1.491797 0.37304,2.405418 0.37304,2.664063 0,0.122763 -0.0492,0.20007 -0.20508,0.283203 -0.15587,0.08313 -0.41904,0.145774 -0.78125,0.169922 -0.73858,2.64e-4 -1.33217,0.02647 -1.78515,0.07617 -0.2459,0.0011 -0.45794,0.144392 -0.57422,0.376953 l -0.008,0.01758 c -0.0574,0.172121 -0.082,0.386033 -0.082,0.644531 0,0.268099 0.0538,0.515739 0.16406,0.736328 0.11245,0.224885 0.28858,0.376953 0.50195,0.376953 0.21112,10e-7 0.58564,-0.0243 1.13477,-0.07422 0.54637,-0.04967 1.16712,-0.09871 1.86328,-0.148438 0.69664,-0.04976 1.41761,-0.100625 2.16406,-0.15039 0.79402,-0.04963 1.51284,-0.07422 2.15625,-0.07422 1.94011,0 3.53199,0.02456 4.77344,0.07422 1.29214,0.0497 2.33413,0.07409 3.13281,0.07422 0.79514,0.04969 1.41545,0.09911 1.85938,0.148438 0.45091,0.0501 0.80204,0.07617 1.06054,0.07617 0.19824,0 0.37307,-0.0508 0.49414,-0.171875 0.12107,-0.121071 0.17383,-0.295906 0.17383,-0.494141 0,-0.18135 -0.0537,-0.455088 -0.1543,-0.857422 -0.0525,-0.210074 -0.11782,-0.373901 -0.21093,-0.498047 -0.0931,-0.124145 -0.22937,-0.207031 -0.37696,-0.207031 -0.25849,0 -0.63462,0.0242 -1.13476,0.07422 h -0.002 c -0.44044,0.04894 -0.98354,0.07422 -1.62696,0.07422 H 155.375 c -0.12787,-0.04313 -0.30385,-0.108754 -0.50781,-0.189454 -0.43476,-0.879725 -0.97753,-2.515337 -1.61719,-4.925781 v -0.0039 c -0.59701,-2.487607 -1.26935,-5.348188 -2.01563,-8.582031 l 0.002,0.002 c -0.69666,-3.284268 -1.41957,-6.766776 -2.16602,-10.449219 v -0.002 c -0.69667,-3.682414 -1.34427,-7.19139 -1.9414,-10.525391 l 0.002,0.002 c -0.54747,-3.334626 -1.02182,-6.32154 -1.41992,-8.958984 l 0.002,0.0039 c -0.34809,-2.635539 -0.52148,-4.525978 -0.52148,-5.65625 0,-0.236881 0.0315,-0.412588 0.0801,-0.519531 0.048,-0.105702 0.0963,-0.142034 0.17383,-0.158203 1.58515,-0.09896 3.02241,-0.17311 4.31055,-0.222656 1.29663,-0.04987 2.39593,-0.126457 3.29687,-0.226563 h 0.006 c 0.90454,-0.150756 1.61442,-0.35213 2.13282,-0.611328 l 0.01,-0.0039 c 0.53109,-0.318653 0.81641,-0.803316 0.81641,-1.394531 0,-0.287311 -0.12146,-0.553102 -0.3418,-0.773438 -0.1038,-0.1038 -0.19624,-0.184212 -0.2832,-0.242187 -0.087,-0.05797 -0.16782,-0.09766 -0.26563,-0.09766 l -0.0859,0.02734 c -0.0534,0.04009 -0.27562,0.126025 -0.61719,0.199219 -0.34157,0.07319 -0.81136,0.148295 -1.40625,0.222656 -1.14171,0.148918 -2.5834,0.298052 -4.32422,0.447266 -1.74017,0.149157 -3.63055,0.273565 -5.66992,0.373047 -2.03867,0.09945 -4.02793,0.148437 -5.9668,0.148437 -0.79344,0 -2.06114,-0.02446 -3.80273,-0.07422 -1.68859,-0.04966 -3.60218,-0.174158 -5.74024,-0.373047 -2.13803,-0.198887 -4.37555,-0.447731 -6.71289,-0.746093 h -0.002 c -2.33379,-0.347659 -4.4924,-0.7942 -6.47656,-1.339844 z m 0.0176,0.296875 c 1.97365,0.538554 4.1072,0.983967 6.41797,1.328125 h 0.004 c 2.34104,0.298856 4.58238,0.548769 6.72461,0.748047 2.14283,0.199332 4.06151,0.323155 5.75781,0.373047 1.74285,0.0498 3.01306,0.07617 3.8125,0.07617 1.94379,0 3.93736,-0.05073 5.98047,-0.150391 2.04239,-0.09963 3.93541,-0.223538 5.67969,-0.373047 1.74361,-0.149453 3.18981,-0.29947 4.33789,-0.449219 0.59977,-0.07497 1.07437,-0.150423 1.42968,-0.226562 0.31344,-0.06716 0.49655,-0.132998 0.64258,-0.220703 0.002,0 0.0431,0.0092 0.10547,0.05078 0.0624,0.04158 0.14493,0.111721 0.24024,0.207031 0.17788,0.177887 0.25586,0.357892 0.25586,0.56836 0,0.502244 -0.21253,0.864256 -0.67383,1.142578 -0.47692,0.237369 -1.15886,0.434679 -2.04297,0.582031 -0.88989,0.09866 -1.97883,0.17309 -3.26758,0.222656 -1.29564,0.04984 -2.74016,0.124998 -4.33398,0.22461 l -0.0176,0.002 c -0.16973,0.03395 -0.30893,0.157384 -0.38477,0.324218 -0.0758,0.166835 -0.10547,0.377778 -0.10547,0.638672 0,1.159505 0.17464,3.052456 0.52344,5.69336 v 0.002 c 0.39834,2.638997 0.87229,5.627298 1.41992,8.96289 v 0.002 c 0.59743,3.335619 1.24444,6.845327 1.94141,10.529296 v 0.002 c 0.74674,3.683933 1.46903,7.169272 2.16601,10.455078 l 0.002,0.002 c 0.74674,3.235869 1.41816,6.098473 2.01562,8.58789 v 0.0039 c 0.64811,2.442848 1.19532,4.111342 1.6543,5.029297 l 0.0742,0.07031 c 0.25042,0.10017 0.45158,0.175266 0.60547,0.226563 l 0.0449,0.0078 h 0.9707 c 0.65005,0 1.20295,-0.02567 1.65821,-0.07617 0.49541,-0.04954 0.86618,-0.07422 1.10546,-0.07422 0.0515,0 0.0903,0.01683 0.14649,0.0918 0.0562,0.07497 0.11507,0.208337 0.16211,0.396485 0.0985,0.394111 0.14453,0.669793 0.14453,0.787109 0,0.150209 -0.0347,0.235912 -0.0879,0.289063 -0.0531,0.05315 -0.14081,0.08984 -0.29102,0.08984 -0.23928,0 -0.5842,-0.02476 -1.02929,-0.07422 -0.45208,-0.05023 -1.0753,-0.100534 -1.87305,-0.150391 h -0.01 c -0.79294,0 -1.83693,-0.02454 -3.1289,-0.07422 -1.24743,-0.0499 -2.84259,-0.07617 -4.78516,-0.07617 -0.6508,0 -1.37496,0.02624 -2.17383,0.07617 h -0.002 c -0.74688,0.04979 -1.46889,0.09865 -2.16602,0.148438 -0.69762,0.04983 -1.32041,0.100508 -1.86914,0.15039 -0.54599,0.04964 -0.92032,0.07422 -1.10742,0.07422 -0.0853,0 -0.15747,-0.04541 -0.24414,-0.21875 -0.0888,-0.177633 -0.13281,-0.377743 -0.13281,-0.607422 0,-0.232511 0.0244,-0.410884 0.0644,-0.537109 0.081,-0.157806 0.16417,-0.214844 0.3125,-0.214844 l 0.0176,-0.002 c 0.43927,-0.04881 1.03193,-0.07422 1.77539,-0.07422 h 0.01 c 0.38446,-0.02563 0.68097,-0.08715 0.89843,-0.203125 0.21746,-0.115978 0.35547,-0.311431 0.35547,-0.537109 0,-0.338688 -0.12586,-1.218021 -0.375,-2.712891 -0.24897,-1.493817 -0.57272,-3.285451 -0.9707,-5.375 v -0.0039 c -0.34832,-2.089706 -0.74769,-4.302867 -1.19531,-6.640625 v -0.0039 c -0.39818,-2.388894 -0.79702,-4.605246 -1.19532,-6.646485 l -0.11718,-0.115234 c -0.90283,-0.150471 -2.05058,-0.275236 -3.44727,-0.375 v 0.002 c -1.34792,-0.09985 -2.77104,-0.150391 -4.26758,-0.150391 -1.74633,0 -3.41787,0.07482 -5.01562,0.22461 -1.55267,0.150258 -2.78518,0.424056 -3.70313,0.832031 l -0.082,0.09961 c -0.24874,1.094467 -0.52372,2.263863 -0.82226,3.507813 h 0.002 c -0.29878,1.195123 -0.59772,2.415289 -0.89648,3.660156 l -0.002,0.0039 c -0.24925,1.246256 -0.47246,2.493942 -0.67187,3.740235 -0.20001,1.200616 -0.30078,2.328935 -0.30078,3.382812 0,2.060802 0.42487,3.568207 1.30859,4.503907 l 0.002,0.002 c 0.92053,0.920526 2.05925,1.386718 3.38672,1.386718 1.29607,10e-7 2.08211,-0.02084 2.41406,-0.07617 l 0.0156,-0.0039 c 0.33973,-0.09707 0.62774,-0.144531 0.85742,-0.144531 0.1871,0 0.31762,0.02795 0.38281,0.06055 0.0652,0.0326 0.0703,0.04417 0.0703,0.0957 0,-0.01026 -0.0117,0.04454 -0.0664,0.121094 -0.0547,0.07655 -0.14458,0.177779 -0.26563,0.298828 -0.19062,0.190621 -0.45851,0.410379 -0.80273,0.65625 l -0.006,0.0039 c -0.44362,0.345042 -1.03838,0.767124 -1.7832,1.263672 l -0.008,0.0059 c -0.66675,0.523875 -1.55192,0.791016 -2.67383,0.791016 -0.13333,0 -0.53733,-0.0245 -1.1836,-0.07422 -0.59535,-0.04962 -1.3412,-0.125153 -2.23632,-0.224609 h -0.008 c -0.89629,-0.0498 -1.84209,-0.09865 -2.83789,-0.148438 -0.9977,-0.04989 -1.94508,-0.07617 -2.84375,-0.07617 -1.24636,0 -2.2692,0.0261 -3.07031,0.07617 h -0.002 c -0.74794,0.04986 -1.34539,0.09827 -1.79688,0.148438 -0.45149,0.05017 -0.74911,0.09736 -0.92578,0.15625 -0.18669,0.04603 -0.3286,0.06836 -0.40234,0.06836 -0.002,0 0.003,0.0076 -0.0156,-0.01758 -0.0189,-0.02519 -0.0462,-0.08328 -0.0684,-0.171875 l -0.0215,-0.04492 c -0.0832,-0.124742 -0.125,-0.268261 -0.125,-0.443359 0,-0.129322 0.0268,-0.21606 0.0664,-0.271484 0.0396,-0.05542 0.0941,-0.08992 0.19141,-0.109375 l 0.0254,-0.0078 c 0.51085,-0.204339 1.23488,-0.579654 2.18359,-1.128906 l 0.002,-0.002 c 1.02394,-0.614368 1.91099,-1.632103 2.66601,-3.041016 v -0.002 c 0.80038,-1.450847 1.69905,-3.393257 2.69532,-5.833984 v -0.002 c 0.7002,-1.650699 1.47144,-3.894696 2.31836,-6.734375 0.84694,-2.839764 1.69434,-5.953183 2.54101,-9.339843 0.84678,-3.387145 1.64356,-6.921903 2.39063,-10.607422 v -0.002 c 0.74196,-3.709813 1.35901,-7.269803 1.85546,-10.685547 l 6.50977,-3.476563 -0.0684,-0.271484 c -0.79344,0 -1.96355,-0.02446 -3.50586,-0.07422 -1.49195,-0.04973 -3.08207,-0.123166 -4.77344,-0.222656 -1.69095,-0.09947 -3.35695,-0.223856 -4.99804,-0.373047 -1.57692,-0.147836 -2.85317,-0.321979 -3.83789,-0.517578 -0.14523,-0.07541 -0.33317,-0.292952 -0.52149,-0.666016 -0.14249,-0.431154 -0.21484,-0.836311 -0.21484,-1.21289 0,-0.389977 0.17288,-0.662525 0.50976,-0.886719 z m 19.80469,4.550781 c -0.57942,0 -1.12913,0.472997 -1.6875,1.335938 -0.55423,0.806687 -1.15425,1.906007 -1.80273,3.302734 v 0.002 c -0.59975,1.349429 -1.19841,2.92138 -1.79688,4.716797 -0.59755,1.742901 -1.1955,3.561144 -1.79297,5.453125 l -0.002,0.002 c -0.5479,1.84292 -1.07027,3.686352 -1.56836,5.529297 v 0.0039 c -0.44837,1.843322 -0.8239,3.512065 -1.12305,5.007813 l 0.17774,0.167969 c 0.79096,-0.197741 1.7825,-0.397019 2.97461,-0.595704 h 0.004 c 1.24372,-0.248743 2.53749,-0.49732 3.88086,-0.746093 1.39244,-0.248649 2.75903,-0.472981 4.10157,-0.671875 h 0.004 c 1.39197,-0.248565 2.66059,-0.446727 3.80274,-0.595703 l 0.12109,-0.171875 c -0.24854,-1.242708 -0.54651,-2.78554 -0.89453,-4.625 v -0.0039 c -0.29867,-1.841608 -0.62232,-3.706402 -0.9707,-5.597656 -0.34864,-1.942386 -0.69815,-3.761268 -1.04688,-5.455078 l 0.002,0.0039 c -0.29886,-1.693554 -0.54808,-2.988811 -0.74804,-3.888672 -0.29906,-1.345719 -0.56076,-2.18302 -0.84375,-2.582031 -0.21125,-0.366215 -0.47713,-0.591797 -0.79102,-0.591797 z m 0,0.289063 c 0.18165,0 0.36059,0.123227 0.54688,0.449218 l 0.008,0.01172 c 0.2138,0.299329 0.50142,1.148028 0.79883,2.486328 0.19825,0.89214 0.44762,2.185621 0.74609,3.876953 v 0.0039 c 0.34817,1.691077 0.69667,3.506987 1.04492,5.447265 0.34826,1.890575 0.67221,3.756926 0.97071,5.597657 v 0.0039 c 0.33733,1.783021 0.62305,3.258668 0.86718,4.482422 -1.11133,0.147532 -2.32415,0.336903 -3.66406,0.576172 -1.34357,0.199109 -2.71239,0.423111 -4.10547,0.671875 h -0.002 c -1.34463,0.249005 -2.6396,0.49706 -3.88477,0.746093 -1.10534,0.18434 -2.00166,0.369587 -2.76953,0.554688 0.29133,-1.440462 0.64223,-3.021139 1.07031,-4.78125 l 0.002,-0.0039 c 0.49712,-1.839233 1.01959,-3.678321 1.5664,-5.517579 l -0.002,0.002 c 0.59701,-1.890517 1.19409,-3.70624 1.79102,-5.447266 0.59597,-1.787932 1.1924,-3.351206 1.78711,-4.689453 v -0.002 c 0.64464,-1.388289 1.23921,-2.476135 1.77929,-3.261719 l 0.002,-0.0039 c 0.53673,-0.829503 1.03113,-1.203125 1.44726,-1.203125 z"
       id="path14649" /></g></g></svg>
